<?xml version="1.0" encoding="UTF-8"?>
<svg width="80px" height="80px" viewBox="0 0 80 80" version="1.1" xmlns="http://www.w3.org/2000/svg" xmlns:xlink="http://www.w3.org/1999/xlink">
    <title>Slice</title>
    <defs>
        <polygon id="path-1" points="9.28710938 35.9133858 14.6582031 26.8801827 15.0488281 26.8801827 20.4199219 35.9133858 27.8662109 35.9133858 19.2236328 22.290339 27.8173828 8.98467489 20.4931641 8.98467489 15.3662109 18.0667061 14.9511719 18.0667061 9.84863281 8.98467489 2.13378906 8.98467489 10.7519531 22.5833077 2.20703125 35.9133858"></polygon>
        <path d="M59.2429687,53.8339844 L59.2429687,43.6660156 L19.9070312,43.6660156 L19.9070312,53.8339844 L59.2429687,53.8339844 Z M59.2429687,72.7597656 L59.2429687,62.5917969 L19.9070312,62.5917969 L19.9070312,72.7597656 L59.2429687,72.7597656 Z" id="path-2"></path>
        <polygon id="path-3" points="43.625 35.5341797 43.625 25.3535156 53.7568359 25.3535156 53.7568359 19.2988281 43.625 19.2988281 43.625 9.11816406 37.3505859 9.11816406 37.3505859 19.2988281 27.21875 19.2988281 27.21875 25.3535156 37.3505859 25.3535156 37.3505859 35.5341797"></polygon>
        <path d="M56.5410156,45.7167969 C63.1328125,45.7167969 66.2822266,43.2753906 68.6015625,36.3417969 L77.8789062,9.07128906 L70.7988281,9.07128906 L64.8417969,29.8476562 L64.4267578,29.8476562 L58.4697266,9.07128906 L51.0966797,9.07128906 L60.5693359,36.1953125 L60.3007812,37.2207031 C59.6660156,39.3447266 58.1767578,40.2724609 55.4667969,40.2724609 C55.1005859,40.2724609 54.1484375,40.2480469 53.9775391,40.1992188 L53.9775391,45.6679688 C54.1728516,45.6923828 55.3935547,45.7167969 56.5410156,45.7167969 Z" id="path-4"></path>
    </defs>
    <g id="Page-1" stroke="none" stroke-width="1" fill="none" fill-rule="evenodd">
        <g id="x" fill-rule="nonzero">
            <use fill="#FFFFFF" xlink:href="#path-1"></use>
            <use fill="#3AD7FF" xlink:href="#path-1"></use>
        </g>
        <g id="=" fill-rule="nonzero">
            <use fill="#FFFFFF" xlink:href="#path-2"></use>
            <use fill="#21D789" xlink:href="#path-2"></use>
        </g>
        <g id="+" fill-rule="nonzero">
            <use fill="#FFFFFF" xlink:href="#path-3"></use>
            <use fill="#7D7D7D" xlink:href="#path-3"></use>
        </g>
        <g id="y" fill-rule="nonzero">
            <use fill="#FFFFFF" xlink:href="#path-4"></use>
            <use fill="#FDB60D" xlink:href="#path-4"></use>
        </g>
    </g>
</svg>